# xmcd
#
# Track frame offsets: 
#        150
#        12009
#        24685
#        40194
#        52879
#        70050
#        86321
#        98619
#        114071
#        126735
#        143522
#        153838
#        167349
#
# Disc length: 2453 seconds
#
# Revision: 0
# Processed by: cddbd v1.5.2PL0 Copyright (c) Steve Scherf et al.
# Submitted via: ExactAudioCopy v0.99pb5
#
DISCID=8e09930d
DTITLE=Late Thaw - nineteen 56
DYEAR=2009
DGENRE=Bluegrass
TTITLE0=Get To Work
TTITLE1=12 Steps
TTITLE2=Kiss Kiss Kiss
TTITLE3=Long Gone
TTITLE4=Lovin' and Losin'
TTITLE5=Excuse Me
TTITLE6=Let's Waltz
TTITLE7=Broken Vinyl
TTITLE8=Brown Jug
TTITLE9=Little Bride
TTITLE10=What Can I Do
TTITLE11=18 Voles
TTITLE12=Sundog
EXTD=
EXTT0=
EXTT1=
EXTT2=
EXTT3=
EXTT4=
EXTT5=
EXTT6=
EXTT7=
EXTT8=
EXTT9=
EXTT10=
EXTT11=
EXTT12=
PLAYORDER=
